<?xml version="1.0" encoding="utf-8" ?>
<svg baseProfile="full" height="187.5mm" version="1.1" viewBox="0 0 390.0 187.5" width="390.0mm" xmlns="http://www.w3.org/2000/svg" xmlns:ev="http://www.w3.org/2001/xml-events" xmlns:xlink="http://www.w3.org/1999/xlink"><defs /><rect fill="white" height="18.0" stroke="gray" stroke-width="0.5" width="28.0" x="2.0" y="9.5" /><text x="2.0" y="25.5">A</text><rect fill="white" height="18.0" stroke="gray" stroke-width="0.5" width="18.0" x="32.0" y="9.5" /><text x="32.0" y="25.5">A</text><rect fill="white" height="18.0" stroke="gray" stroke-width="0.5" width="18.0" x="52.0" y="4.5" /><text x="52.0" y="20.5">A</text><rect fill="white" height="18.0" stroke="gray" stroke-width="0.5" width="18.0" x="72.0" y="2.0" /><text x="72.0" y="18.0">A</text><rect fill="white" height="18.0" stroke="gray" stroke-width="0.5" width="18.0" x="92.0" y="4.5" /><text x="92.0" y="20.5">A</text><rect fill="white" height="18.0" stroke="gray" stroke-width="0.5" width="18.0" x="112.0" y="7.0" /><text x="112.0" y="23.0">A</text><rect fill="white" height="18.0" stroke="gray" stroke-width="0.5" width="18.0" x="132.0" y="7.0" /><text x="132.0" y="23.0">A</text><rect fill="white" height="18.0" stroke="gray" stroke-width="0.5" width="18.0" x="192.0" y="7.0" /><text x="192.0" y="23.0">A</text><rect fill="white" height="18.0" stroke="gray" stroke-width="0.5" width="18.0" x="212.0" y="7.0" /><text x="212.0" y="23.0">A</text><rect fill="white" height="18.0" stroke="gray" stroke-width="0.5" width="18.0" x="232.0" y="4.5" /><text x="232.0" y="20.5">A</text><rect fill="white" height="18.0" stroke="gray" stroke-width="0.5" width="18.0" x="252.0" y="2.0" /><text x="252.0" y="18.0">A</text><rect fill="white" height="18.0" stroke="gray" stroke-width="0.5" width="18.0" x="272.0" y="4.5" /><text x="272.0" y="20.5">A</text><rect fill="white" height="18.0" stroke="gray" stroke-width="0.5" width="18.0" x="292.0" y="9.5" /><text x="292.0" y="25.5">A</text><rect fill="white" height="18.0" stroke="gray" stroke-width="0.5" width="28.0" x="312.0" y="9.5" /><text x="312.0" y="25.5">A</text><rect fill="white" height="18.0" stroke="gray" stroke-width="0.5" width="28.0" x="2.0" y="29.5" /><text x="2.0" y="45.5">A</text><rect fill="white" height="18.0" stroke="gray" stroke-width="0.5" width="18.0" x="32.0" y="29.5" /><text x="32.0" y="45.5">A</text><rect fill="white" height="18.0" stroke="gray" stroke-width="0.5" width="18.0" x="52.0" y="24.5" /><text x="52.0" y="40.5">A</text><rect fill="white" height="18.0" stroke="gray" stroke-width="0.5" width="18.0" x="72.0" y="22.0" /><text x="72.0" y="38.0">A</text><rect fill="white" height="18.0" stroke="gray" stroke-width="0.5" width="18.0" x="92.0" y="24.5" /><text x="92.0" y="40.5">A</text><rect fill="white" height="18.0" stroke="gray" stroke-width="0.5" width="18.0" x="112.0" y="27.0" /><text x="112.0" y="43.0">A</text><rect fill="white" height="28.0" stroke="gray" stroke-width="0.5" width="18.0" x="132.0" y="27.0" /><text x="132.0" y="43.0">A</text><rect fill="white" height="28.0" stroke="gray" stroke-width="0.5" width="18.0" x="192.0" y="27.0" /><text x="192.0" y="43.0">A</text><rect fill="white" height="18.0" stroke="gray" stroke-width="0.5" width="18.0" x="212.0" y="27.0" /><text x="212.0" y="43.0">A</text><rect fill="white" height="18.0" stroke="gray" stroke-width="0.5" width="18.0" x="232.0" y="24.5" /><text x="232.0" y="40.5">A</text><rect fill="white" height="18.0" stroke="gray" stroke-width="0.5" width="18.0" x="252.0" y="22.0" /><text x="252.0" y="38.0">A</text><rect fill="white" height="18.0" stroke="gray" stroke-width="0.5" width="18.0" x="272.0" y="24.5" /><text x="272.0" y="40.5">A</text><rect fill="white" height="18.0" stroke="gray" stroke-width="0.5" width="18.0" x="292.0" y="29.5" /><text x="292.0" y="45.5">A</text><rect fill="white" height="18.0" stroke="gray" stroke-width="0.5" width="28.0" x="312.0" y="29.5" /><text x="312.0" y="45.5">A</text><rect fill="white" height="18.0" stroke="gray" stroke-width="0.5" width="28.0" x="2.0" y="49.5" /><text x="2.0" y="65.5">A</text><rect fill="white" height="18.0" stroke="gray" stroke-width="0.5" width="18.0" x="32.0" y="49.5" /><text x="32.0" y="65.5">A</text><rect fill="white" height="18.0" stroke="gray" stroke-width="0.5" width="18.0" x="52.0" y="44.5" /><text x="52.0" y="60.5">A</text><rect fill="white" height="18.0" stroke="gray" stroke-width="0.5" width="18.0" x="72.0" y="42.0" /><text x="72.0" y="58.0">A</text><rect fill="white" height="18.0" stroke="gray" stroke-width="0.5" width="18.0" x="92.0" y="44.5" /><text x="92.0" y="60.5">A</text><rect fill="white" height="18.0" stroke="gray" stroke-width="0.5" width="18.0" x="112.0" y="47.0" /><text x="112.0" y="63.0">A</text><rect fill="white" height="18.0" stroke="gray" stroke-width="0.5" width="18.0" x="212.0" y="47.0" /><text x="212.0" y="63.0">A</text><rect fill="white" height="18.0" stroke="gray" stroke-width="0.5" width="18.0" x="232.0" y="44.5" /><text x="232.0" y="60.5">A</text><rect fill="white" height="18.0" stroke="gray" stroke-width="0.5" width="18.0" x="252.0" y="42.0" /><text x="252.0" y="58.0">A</text><rect fill="white" height="18.0" stroke="gray" stroke-width="0.5" width="18.0" x="272.0" y="44.5" /><text x="272.0" y="60.5">A</text><rect fill="white" height="18.0" stroke="gray" stroke-width="0.5" width="18.0" x="292.0" y="49.5" /><text x="292.0" y="65.5">A</text><rect fill="white" height="18.0" stroke="gray" stroke-width="0.5" width="28.0" x="312.0" y="49.5" /><text x="312.0" y="65.5">A</text><rect fill="white" height="18.0" stroke="gray" stroke-width="0.5" width="28.0" x="2.0" y="69.5" /><text x="2.0" y="85.5">A</text><rect fill="white" height="18.0" stroke="gray" stroke-width="0.5" width="18.0" x="32.0" y="69.5" /><text x="32.0" y="85.5">A</text><rect fill="white" height="18.0" stroke="gray" stroke-width="0.5" width="18.0" x="52.0" y="64.5" /><text x="52.0" y="80.5">A</text><rect fill="white" height="18.0" stroke="gray" stroke-width="0.5" width="18.0" x="72.0" y="62.0" /><text x="72.0" y="78.0">A</text><rect fill="white" height="18.0" stroke="gray" stroke-width="0.5" width="18.0" x="92.0" y="64.5" /><text x="92.0" y="80.5">A</text><rect fill="white" height="18.0" stroke="gray" stroke-width="0.5" width="18.0" x="112.0" y="67.0" /><text x="112.0" y="83.0">A</text><rect fill="white" height="28.0" stroke="gray" stroke-width="0.5" width="18.0" x="132.0" y="57.0" /><text x="132.0" y="73.0">A</text><rect fill="white" height="28.0" stroke="gray" stroke-width="0.5" width="18.0" x="192.0" y="57.0" /><text x="192.0" y="73.0">A</text><rect fill="white" height="18.0" stroke="gray" stroke-width="0.5" width="18.0" x="212.0" y="67.0" /><text x="212.0" y="83.0">A</text><rect fill="white" height="18.0" stroke="gray" stroke-width="0.5" width="18.0" x="232.0" y="64.5" /><text x="232.0" y="80.5">A</text><rect fill="white" height="18.0" stroke="gray" stroke-width="0.5" width="18.0" x="252.0" y="62.0" /><text x="252.0" y="78.0">A</text><rect fill="white" height="18.0" stroke="gray" stroke-width="0.5" width="18.0" x="272.0" y="64.5" /><text x="272.0" y="80.5">A</text><rect fill="white" height="18.0" stroke="gray" stroke-width="0.5" width="18.0" x="292.0" y="69.5" /><text x="292.0" y="85.5">A</text><rect fill="white" height="18.0" stroke="gray" stroke-width="0.5" width="28.0" x="312.0" y="69.5" /><text x="312.0" y="85.5">A</text><rect fill="white" height="18.0" stroke="gray" stroke-width="0.5" width="18.0" x="12.0" y="89.5" /><text x="12.0" y="105.5">A</text><rect fill="white" height="18.0" stroke="gray" stroke-width="0.5" width="18.0" x="32.0" y="89.5" /><text x="32.0" y="105.5">A</text><rect fill="white" height="18.0" stroke="gray" stroke-width="0.5" width="18.0" x="52.0" y="84.5" /><text x="52.0" y="100.5">A</text><rect fill="white" height="18.0" stroke="gray" stroke-width="0.5" width="18.0" x="72.0" y="82.0" /><text x="72.0" y="98.0">A</text><rect fill="white" height="18.0" stroke="gray" stroke-width="0.5" width="18.0" x="92.0" y="84.5" /><text x="92.0" y="100.5">A</text><rect fill="white" height="18.0" stroke="gray" stroke-width="0.5" width="18.0" x="232.0" y="84.5" /><text x="232.0" y="100.5">A</text><rect fill="white" height="18.0" stroke="gray" stroke-width="0.5" width="18.0" x="252.0" y="82.0" /><text x="252.0" y="98.0">A</text><rect fill="white" height="18.0" stroke="gray" stroke-width="0.5" width="18.0" x="272.0" y="84.5" /><text x="272.0" y="100.5">A</text><rect fill="white" height="18.0" stroke="gray" stroke-width="0.5" width="18.0" x="292.0" y="89.5" /><text x="292.0" y="105.5">A</text><rect fill="white" height="18.0" stroke="gray" stroke-width="0.5" width="18.0" x="312.0" y="89.5" /><text x="312.0" y="105.5">A</text><rect fill="white" height="18.0" stroke="gray" stroke-width="0.5" width="18.0" x="122.0" y="102.0" /><text x="122.0" y="118.0">A</text><rect fill="white" height="18.0" stroke="gray" stroke-width="0.5" width="18.0" x="142.0" y="102.0" /><text x="142.0" y="118.0">A</text><rect fill="white" height="18.0" stroke="gray" stroke-width="0.5" width="18.0" x="182.0" y="102.0" /><text x="182.0" y="118.0">A</text><rect fill="white" height="18.0" stroke="gray" stroke-width="0.5" width="18.0" x="202.0" y="102.0" /><text x="202.0" y="118.0">A</text><rect fill="white" height="18.0" stroke="gray" stroke-width="0.5" width="18.0" x="142.0" y="122.0" /><text x="142.0" y="138.0">A</text><rect fill="white" height="18.0" stroke="gray" stroke-width="0.5" width="18.0" x="182.0" y="122.0" /><text x="182.0" y="138.0">A</text><rect fill="white" height="38.0" stroke="gray" stroke-width="0.5" width="18.0" x="102.0" y="122.0" /><text x="102.0" y="138.0">A</text><rect fill="white" height="38.0" stroke="gray" stroke-width="0.5" width="18.0" x="122.0" y="122.0" /><text x="122.0" y="138.0">A</text><rect fill="white" height="18.0" stroke="gray" stroke-width="0.5" width="18.0" x="142.0" y="142.0" /><text x="142.0" y="158.0">A</text><rect fill="white" height="18.0" stroke="gray" stroke-width="0.5" width="18.0" x="182.0" y="142.0" /><text x="182.0" y="158.0">A</text><rect fill="white" height="38.0" stroke="gray" stroke-width="0.5" width="18.0" x="202.0" y="122.0" /><text x="202.0" y="138.0">A</text><rect fill="white" height="38.0" stroke="gray" stroke-width="0.5" width="18.0" x="222.0" y="122.0" /><text x="222.0" y="138.0">A</text></svg>