<?xml version="1.0" encoding="utf-8" ?>
<svg baseProfile="full" height="178.59375mm" version="1.1" viewBox="0 0 371.475 178.59375" width="371.475mm" xmlns="http://www.w3.org/2000/svg" xmlns:ev="http://www.w3.org/2001/xml-events" xmlns:xlink="http://www.w3.org/1999/xlink"><defs /><rect fill="white" height="19.05" stroke="gray" stroke-width="0.5" width="28.575000000000003" x="0.0" y="7.143750000000001" /><text x="1.905" y="24.28875">A</text><rect fill="white" height="19.05" stroke="gray" stroke-width="0.5" width="19.05" x="28.575000000000003" y="7.143750000000001" /><text x="30.480000000000004" y="24.28875">A</text><rect fill="white" height="19.05" stroke="gray" stroke-width="0.5" width="19.05" x="47.625" y="2.38125" /><text x="49.53" y="19.52625">A</text><rect fill="white" height="19.05" stroke="gray" stroke-width="0.5" width="19.05" x="66.675" y="0.0" /><text x="68.58" y="17.145">A</text><rect fill="white" height="19.05" stroke="gray" stroke-width="0.5" width="19.05" x="85.72500000000001" y="2.38125" /><text x="87.63000000000001" y="19.52625">A</text><rect fill="white" height="19.05" stroke="gray" stroke-width="0.5" width="19.05" x="104.775" y="4.7625" /><text x="106.68" y="21.9075">A</text><rect fill="white" height="19.05" stroke="gray" stroke-width="0.5" width="19.05" x="123.825" y="4.7625" /><text x="125.73" y="21.9075">A</text><rect fill="white" height="19.05" stroke="gray" stroke-width="0.5" width="19.05" x="180.975" y="4.7625" /><text x="182.88" y="21.9075">A</text><rect fill="white" height="19.05" stroke="gray" stroke-width="0.5" width="19.05" x="200.025" y="4.7625" /><text x="201.93" y="21.9075">A</text><rect fill="white" height="19.05" stroke="gray" stroke-width="0.5" width="19.05" x="219.07500000000002" y="2.38125" /><text x="220.98000000000002" y="19.52625">A</text><rect fill="white" height="19.05" stroke="gray" stroke-width="0.5" width="19.05" x="238.125" y="0.0" /><text x="240.03" y="17.145">A</text><rect fill="white" height="19.05" stroke="gray" stroke-width="0.5" width="19.05" x="257.175" y="2.38125" /><text x="259.08" y="19.52625">A</text><rect fill="white" height="19.05" stroke="gray" stroke-width="0.5" width="19.05" x="276.225" y="7.143750000000001" /><text x="278.13" y="24.28875">A</text><rect fill="white" height="19.05" stroke="gray" stroke-width="0.5" width="28.575000000000003" x="295.27500000000003" y="7.143750000000001" /><text x="297.18" y="24.28875">A</text><rect fill="white" height="19.05" stroke="gray" stroke-width="0.5" width="28.575000000000003" x="0.0" y="26.19375" /><text x="1.905" y="43.338750000000005">A</text><rect fill="white" height="19.05" stroke="gray" stroke-width="0.5" width="19.05" x="28.575000000000003" y="26.19375" /><text x="30.480000000000004" y="43.338750000000005">A</text><rect fill="white" height="19.05" stroke="gray" stroke-width="0.5" width="19.05" x="47.625" y="21.431250000000002" /><text x="49.53" y="38.57625">A</text><rect fill="white" height="19.05" stroke="gray" stroke-width="0.5" width="19.05" x="66.675" y="19.05" /><text x="68.58" y="36.195">A</text><rect fill="white" height="19.05" stroke="gray" stroke-width="0.5" width="19.05" x="85.72500000000001" y="21.431250000000002" /><text x="87.63000000000001" y="38.57625">A</text><rect fill="white" height="19.05" stroke="gray" stroke-width="0.5" width="19.05" x="104.775" y="23.8125" /><text x="106.68" y="40.957499999999996">A</text><rect fill="white" height="28.575000000000003" stroke="gray" stroke-width="0.5" width="19.05" x="123.825" y="23.8125" /><text x="125.73" y="40.957499999999996">A</text><rect fill="white" height="28.575000000000003" stroke="gray" stroke-width="0.5" width="19.05" x="180.975" y="23.8125" /><text x="182.88" y="40.957499999999996">A</text><rect fill="white" height="19.05" stroke="gray" stroke-width="0.5" width="19.05" x="200.025" y="23.8125" /><text x="201.93" y="40.957499999999996">A</text><rect fill="white" height="19.05" stroke="gray" stroke-width="0.5" width="19.05" x="219.07500000000002" y="21.431250000000002" /><text x="220.98000000000002" y="38.57625">A</text><rect fill="white" height="19.05" stroke="gray" stroke-width="0.5" width="19.05" x="238.125" y="19.05" /><text x="240.03" y="36.195">A</text><rect fill="white" height="19.05" stroke="gray" stroke-width="0.5" width="19.05" x="257.175" y="21.431250000000002" /><text x="259.08" y="38.57625">A</text><rect fill="white" height="19.05" stroke="gray" stroke-width="0.5" width="19.05" x="276.225" y="26.19375" /><text x="278.13" y="43.338750000000005">A</text><rect fill="white" height="19.05" stroke="gray" stroke-width="0.5" width="28.575000000000003" x="295.27500000000003" y="26.19375" /><text x="297.18" y="43.338750000000005">A</text><rect fill="white" height="19.05" stroke="gray" stroke-width="0.5" width="28.575000000000003" x="0.0" y="45.24375" /><text x="1.905" y="62.38875">A</text><rect fill="white" height="19.05" stroke="gray" stroke-width="0.5" width="19.05" x="28.575000000000003" y="45.24375" /><text x="30.480000000000004" y="62.38875">A</text><rect fill="white" height="19.05" stroke="gray" stroke-width="0.5" width="19.05" x="47.625" y="40.48125" /><text x="49.53" y="57.62625">A</text><rect fill="white" height="19.05" stroke="gray" stroke-width="0.5" width="19.05" x="66.675" y="38.1" /><text x="68.58" y="55.245000000000005">A</text><rect fill="white" height="19.05" stroke="gray" stroke-width="0.5" width="19.05" x="85.72500000000001" y="40.48125" /><text x="87.63000000000001" y="57.62625">A</text><rect fill="white" height="19.05" stroke="gray" stroke-width="0.5" width="19.05" x="104.775" y="42.862500000000004" /><text x="106.68" y="60.00750000000001">A</text><rect fill="white" height="19.05" stroke="gray" stroke-width="0.5" width="19.05" x="200.025" y="42.862500000000004" /><text x="201.93" y="60.00750000000001">A</text><rect fill="white" height="19.05" stroke="gray" stroke-width="0.5" width="19.05" x="219.07500000000002" y="40.48125" /><text x="220.98000000000002" y="57.62625">A</text><rect fill="white" height="19.05" stroke="gray" stroke-width="0.5" width="19.05" x="238.125" y="38.1" /><text x="240.03" y="55.245000000000005">A</text><rect fill="white" height="19.05" stroke="gray" stroke-width="0.5" width="19.05" x="257.175" y="40.48125" /><text x="259.08" y="57.62625">A</text><rect fill="white" height="19.05" stroke="gray" stroke-width="0.5" width="19.05" x="276.225" y="45.24375" /><text x="278.13" y="62.38875">A</text><rect fill="white" height="19.05" stroke="gray" stroke-width="0.5" width="28.575000000000003" x="295.27500000000003" y="45.24375" /><text x="297.18" y="62.38875">A</text><rect fill="white" height="19.05" stroke="gray" stroke-width="0.5" width="28.575000000000003" x="0.0" y="64.29375" /><text x="1.905" y="81.43875">A</text><rect fill="white" height="19.05" stroke="gray" stroke-width="0.5" width="19.05" x="28.575000000000003" y="64.29375" /><text x="30.480000000000004" y="81.43875">A</text><rect fill="white" height="19.05" stroke="gray" stroke-width="0.5" width="19.05" x="47.625" y="59.53125" /><text x="49.53" y="76.67625">A</text><rect fill="white" height="19.05" stroke="gray" stroke-width="0.5" width="19.05" x="66.675" y="57.150000000000006" /><text x="68.58" y="74.295">A</text><rect fill="white" height="19.05" stroke="gray" stroke-width="0.5" width="19.05" x="85.72500000000001" y="59.53125" /><text x="87.63000000000001" y="76.67625">A</text><rect fill="white" height="19.05" stroke="gray" stroke-width="0.5" width="19.05" x="104.775" y="61.9125" /><text x="106.68" y="79.0575">A</text><rect fill="white" height="28.575000000000003" stroke="gray" stroke-width="0.5" width="19.05" x="123.825" y="52.3875" /><text x="125.73" y="69.5325">A</text><rect fill="white" height="28.575000000000003" stroke="gray" stroke-width="0.5" width="19.05" x="180.975" y="52.3875" /><text x="182.88" y="69.5325">A</text><rect fill="white" height="19.05" stroke="gray" stroke-width="0.5" width="19.05" x="200.025" y="61.9125" /><text x="201.93" y="79.0575">A</text><rect fill="white" height="19.05" stroke="gray" stroke-width="0.5" width="19.05" x="219.07500000000002" y="59.53125" /><text x="220.98000000000002" y="76.67625">A</text><rect fill="white" height="19.05" stroke="gray" stroke-width="0.5" width="19.05" x="238.125" y="57.150000000000006" /><text x="240.03" y="74.295">A</text><rect fill="white" height="19.05" stroke="gray" stroke-width="0.5" width="19.05" x="257.175" y="59.53125" /><text x="259.08" y="76.67625">A</text><rect fill="white" height="19.05" stroke="gray" stroke-width="0.5" width="19.05" x="276.225" y="64.29375" /><text x="278.13" y="81.43875">A</text><rect fill="white" height="19.05" stroke="gray" stroke-width="0.5" width="28.575000000000003" x="295.27500000000003" y="64.29375" /><text x="297.18" y="81.43875">A</text><rect fill="white" height="19.05" stroke="gray" stroke-width="0.5" width="19.05" x="9.525" y="83.34375" /><text x="11.43" y="100.48875">A</text><rect fill="white" height="19.05" stroke="gray" stroke-width="0.5" width="19.05" x="28.575000000000003" y="83.34375" /><text x="30.480000000000004" y="100.48875">A</text><rect fill="white" height="19.05" stroke="gray" stroke-width="0.5" width="19.05" x="47.625" y="78.58125" /><text x="49.53" y="95.72625">A</text><rect fill="white" height="19.05" stroke="gray" stroke-width="0.5" width="19.05" x="66.675" y="76.2" /><text x="68.58" y="93.345">A</text><rect fill="white" height="19.05" stroke="gray" stroke-width="0.5" width="19.05" x="85.72500000000001" y="78.58125" /><text x="87.63000000000001" y="95.72625">A</text><rect fill="white" height="19.05" stroke="gray" stroke-width="0.5" width="19.05" x="219.07500000000002" y="78.58125" /><text x="220.98000000000002" y="95.72625">A</text><rect fill="white" height="19.05" stroke="gray" stroke-width="0.5" width="19.05" x="238.125" y="76.2" /><text x="240.03" y="93.345">A</text><rect fill="white" height="19.05" stroke="gray" stroke-width="0.5" width="19.05" x="257.175" y="78.58125" /><text x="259.08" y="95.72625">A</text><rect fill="white" height="19.05" stroke="gray" stroke-width="0.5" width="19.05" x="276.225" y="83.34375" /><text x="278.13" y="100.48875">A</text><rect fill="white" height="19.05" stroke="gray" stroke-width="0.5" width="19.05" x="295.27500000000003" y="83.34375" /><text x="297.18" y="100.48875">A</text><rect fill="white" height="19.05" stroke="gray" stroke-width="0.5" transform="rotate(30 123.825 104.775)" width="19.05" x="114.30000000000001" y="95.25" /><text transform="rotate(30 123.825 104.775)" x="116.20500000000001" y="112.395">A</text><rect fill="white" height="19.05" stroke="gray" stroke-width="0.5" transform="rotate(30 123.825 104.775)" width="19.05" x="133.35" y="95.25" /><text transform="rotate(30 123.825 104.775)" x="135.255" y="112.395">A</text><rect fill="white" height="19.05" stroke="gray" stroke-width="0.5" transform="rotate(-30 200.025 114.30000000000001)" width="19.05" x="171.45000000000002" y="95.25" /><text transform="rotate(-30 200.025 114.30000000000001)" x="173.35500000000002" y="112.395">A</text><rect fill="white" height="19.05" stroke="gray" stroke-width="0.5" transform="rotate(-30 200.025 114.30000000000001)" width="19.05" x="190.5" y="95.25" /><text transform="rotate(-30 200.025 114.30000000000001)" x="192.405" y="112.395">A</text><rect fill="white" height="19.05" stroke="gray" stroke-width="0.5" transform="rotate(30 123.825 104.775)" width="19.05" x="133.35" y="114.30000000000001" /><text transform="rotate(30 123.825 104.775)" x="135.255" y="131.44500000000002">A</text><rect fill="white" height="19.05" stroke="gray" stroke-width="0.5" transform="rotate(-30 200.025 114.30000000000001)" width="19.05" x="171.45000000000002" y="114.30000000000001" /><text transform="rotate(-30 200.025 114.30000000000001)" x="173.35500000000002" y="131.44500000000002">A</text><rect fill="white" height="38.1" stroke="gray" stroke-width="0.5" transform="rotate(30 123.825 104.775)" width="19.05" x="95.25" y="114.30000000000001" /><text transform="rotate(30 123.825 104.775)" x="97.155" y="131.44500000000002">A</text><rect fill="white" height="38.1" stroke="gray" stroke-width="0.5" transform="rotate(30 123.825 104.775)" width="19.05" x="114.30000000000001" y="114.30000000000001" /><text transform="rotate(30 123.825 104.775)" x="116.20500000000001" y="131.44500000000002">A</text><rect fill="white" height="19.05" stroke="gray" stroke-width="0.5" transform="rotate(30 123.825 104.775)" width="19.05" x="133.35" y="133.35" /><text transform="rotate(30 123.825 104.775)" x="135.255" y="150.495">A</text><rect fill="white" height="19.05" stroke="gray" stroke-width="0.5" transform="rotate(-30 200.025 114.30000000000001)" width="19.05" x="171.45000000000002" y="133.35" /><text transform="rotate(-30 200.025 114.30000000000001)" x="173.35500000000002" y="150.495">A</text><rect fill="white" height="38.1" stroke="gray" stroke-width="0.5" transform="rotate(-30 200.025 114.30000000000001)" width="19.05" x="190.5" y="114.30000000000001" /><text transform="rotate(-30 200.025 114.30000000000001)" x="192.405" y="131.44500000000002">A</text><rect fill="white" height="38.1" stroke="gray" stroke-width="0.5" transform="rotate(-30 200.025 114.30000000000001)" width="19.05" x="209.55" y="114.30000000000001" /><text transform="rotate(-30 200.025 114.30000000000001)" x="211.455" y="131.44500000000002">A</text></svg>