<?xml version="1.0" encoding="utf-8" ?>
<svg baseProfile="full" height="100%" version="1.1" width="100%" xmlns="http://www.w3.org/2000/svg" xmlns:ev="http://www.w3.org/2001/xml-events" xmlns:xlink="http://www.w3.org/1999/xlink"><defs /><rect height="19.05" stroke="red" stroke-width="1" width="28.575000000000003" x="0.0" y="7.143750000000001" /><rect height="19.05" stroke="red" stroke-width="1" width="19.05" x="28.575000000000003" y="7.143750000000001" /><rect height="19.05" stroke="red" stroke-width="1" width="19.05" x="47.625" y="2.38125" /><rect height="19.05" stroke="red" stroke-width="1" width="19.05" x="66.675" y="0.0" /><rect height="19.05" stroke="red" stroke-width="1" width="19.05" x="85.72500000000001" y="2.38125" /><rect height="19.05" stroke="red" stroke-width="1" width="19.05" x="104.775" y="4.7625" /><rect height="19.05" stroke="red" stroke-width="1" width="19.05" x="123.825" y="4.7625" /><rect height="19.05" stroke="red" stroke-width="1" width="19.05" x="180.975" y="4.7625" /><rect height="19.05" stroke="red" stroke-width="1" width="19.05" x="200.025" y="4.7625" /><rect height="19.05" stroke="red" stroke-width="1" width="19.05" x="219.07500000000002" y="2.38125" /><rect height="19.05" stroke="red" stroke-width="1" width="19.05" x="238.125" y="0.0" /><rect height="19.05" stroke="red" stroke-width="1" width="19.05" x="257.175" y="2.38125" /><rect height="19.05" stroke="red" stroke-width="1" width="19.05" x="276.225" y="7.143750000000001" /><rect height="19.05" stroke="red" stroke-width="1" width="28.575000000000003" x="295.27500000000003" y="7.143750000000001" /><rect height="19.05" stroke="red" stroke-width="1" width="28.575000000000003" x="0.0" y="26.19375" /><rect height="19.05" stroke="red" stroke-width="1" width="19.05" x="28.575000000000003" y="26.19375" /><rect height="19.05" stroke="red" stroke-width="1" width="19.05" x="47.625" y="21.431250000000002" /><rect height="19.05" stroke="red" stroke-width="1" width="19.05" x="66.675" y="19.05" /><rect height="19.05" stroke="red" stroke-width="1" width="19.05" x="85.72500000000001" y="21.431250000000002" /><rect height="19.05" stroke="red" stroke-width="1" width="19.05" x="104.775" y="23.8125" /><rect height="28.575000000000003" stroke="red" stroke-width="1" width="19.05" x="123.825" y="23.8125" /><rect height="28.575000000000003" stroke="red" stroke-width="1" width="19.05" x="180.975" y="23.8125" /><rect height="19.05" stroke="red" stroke-width="1" width="19.05" x="200.025" y="23.8125" /><rect height="19.05" stroke="red" stroke-width="1" width="19.05" x="219.07500000000002" y="21.431250000000002" /><rect height="19.05" stroke="red" stroke-width="1" width="19.05" x="238.125" y="19.05" /><rect height="19.05" stroke="red" stroke-width="1" width="19.05" x="257.175" y="21.431250000000002" /><rect height="19.05" stroke="red" stroke-width="1" width="19.05" x="276.225" y="26.19375" /><rect height="19.05" stroke="red" stroke-width="1" width="28.575000000000003" x="295.27500000000003" y="26.19375" /><rect height="19.05" stroke="red" stroke-width="1" width="28.575000000000003" x="0.0" y="45.24375" /><rect height="19.05" stroke="red" stroke-width="1" width="19.05" x="28.575000000000003" y="45.24375" /><rect height="19.05" stroke="red" stroke-width="1" width="19.05" x="47.625" y="40.48125" /><rect height="19.05" stroke="red" stroke-width="1" width="19.05" x="66.675" y="38.1" /><rect height="19.05" stroke="red" stroke-width="1" width="19.05" x="85.72500000000001" y="40.48125" /><rect height="19.05" stroke="red" stroke-width="1" width="19.05" x="104.775" y="42.862500000000004" /><rect height="19.05" stroke="red" stroke-width="1" width="19.05" x="200.025" y="42.862500000000004" /><rect height="19.05" stroke="red" stroke-width="1" width="19.05" x="219.07500000000002" y="40.48125" /><rect height="19.05" stroke="red" stroke-width="1" width="19.05" x="238.125" y="38.1" /><rect height="19.05" stroke="red" stroke-width="1" width="19.05" x="257.175" y="40.48125" /><rect height="19.05" stroke="red" stroke-width="1" width="19.05" x="276.225" y="45.24375" /><rect height="19.05" stroke="red" stroke-width="1" width="28.575000000000003" x="295.27500000000003" y="45.24375" /><rect height="19.05" stroke="red" stroke-width="1" width="28.575000000000003" x="0.0" y="64.29375" /><rect height="19.05" stroke="red" stroke-width="1" width="19.05" x="28.575000000000003" y="64.29375" /><rect height="19.05" stroke="red" stroke-width="1" width="19.05" x="47.625" y="59.53125" /><rect height="19.05" stroke="red" stroke-width="1" width="19.05" x="66.675" y="57.150000000000006" /><rect height="19.05" stroke="red" stroke-width="1" width="19.05" x="85.72500000000001" y="59.53125" /><rect height="19.05" stroke="red" stroke-width="1" width="19.05" x="104.775" y="61.9125" /><rect height="28.575000000000003" stroke="red" stroke-width="1" width="19.05" x="123.825" y="52.3875" /><rect height="28.575000000000003" stroke="red" stroke-width="1" width="19.05" x="180.975" y="52.3875" /><rect height="19.05" stroke="red" stroke-width="1" width="19.05" x="200.025" y="61.9125" /><rect height="19.05" stroke="red" stroke-width="1" width="19.05" x="219.07500000000002" y="59.53125" /><rect height="19.05" stroke="red" stroke-width="1" width="19.05" x="238.125" y="57.150000000000006" /><rect height="19.05" stroke="red" stroke-width="1" width="19.05" x="257.175" y="59.53125" /><rect height="19.05" stroke="red" stroke-width="1" width="19.05" x="276.225" y="64.29375" /><rect height="19.05" stroke="red" stroke-width="1" width="28.575000000000003" x="295.27500000000003" y="64.29375" /><rect height="19.05" stroke="red" stroke-width="1" width="19.05" x="9.525" y="83.34375" /><rect height="19.05" stroke="red" stroke-width="1" width="19.05" x="28.575000000000003" y="83.34375" /><rect height="19.05" stroke="red" stroke-width="1" width="19.05" x="47.625" y="78.58125" /><rect height="19.05" stroke="red" stroke-width="1" width="19.05" x="66.675" y="76.2" /><rect height="19.05" stroke="red" stroke-width="1" width="19.05" x="85.72500000000001" y="78.58125" /><rect height="19.05" stroke="red" stroke-width="1" width="19.05" x="219.07500000000002" y="78.58125" /><rect height="19.05" stroke="red" stroke-width="1" width="19.05" x="238.125" y="76.2" /><rect height="19.05" stroke="red" stroke-width="1" width="19.05" x="257.175" y="78.58125" /><rect height="19.05" stroke="red" stroke-width="1" width="19.05" x="276.225" y="83.34375" /><rect height="19.05" stroke="red" stroke-width="1" width="19.05" x="295.27500000000003" y="83.34375" /><rect height="19.05" stroke="red" stroke-width="1" transform="rotate(30 123.825 80.9625)" width="19.05" x="114.30000000000001" y="95.25" /><rect height="19.05" stroke="red" stroke-width="1" transform="rotate(30 123.825 80.9625)" width="19.05" x="133.35" y="95.25" /><rect height="19.05" stroke="red" stroke-width="1" transform="rotate(-30 247.65 0.0)" width="19.05" x="171.45000000000002" y="95.25" /><rect height="19.05" stroke="red" stroke-width="1" transform="rotate(-30 247.65 0.0)" width="19.05" x="190.5" y="95.25" /><rect height="19.05" stroke="red" stroke-width="1" transform="rotate(30 123.825 80.9625)" width="19.05" x="133.35" y="114.30000000000001" /><rect height="19.05" stroke="red" stroke-width="1" transform="rotate(-30 247.65 0.0)" width="19.05" x="171.45000000000002" y="114.30000000000001" /><rect height="38.1" stroke="red" stroke-width="1" transform="rotate(30 123.825 80.9625)" width="19.05" x="95.25" y="114.30000000000001" /><rect height="38.1" stroke="red" stroke-width="1" transform="rotate(30 123.825 80.9625)" width="19.05" x="114.30000000000001" y="114.30000000000001" /><rect height="19.05" stroke="red" stroke-width="1" transform="rotate(30 123.825 80.9625)" width="19.05" x="133.35" y="133.35" /><rect height="19.05" stroke="red" stroke-width="1" transform="rotate(-30 247.65 0.0)" width="19.05" x="171.45000000000002" y="133.35" /><rect height="38.1" stroke="red" stroke-width="1" transform="rotate(-30 247.65 0.0)" width="19.05" x="190.5" y="114.30000000000001" /><rect height="38.1" stroke="red" stroke-width="1" transform="rotate(-30 247.65 0.0)" width="19.05" x="209.55" y="114.30000000000001" /></svg>