<?xml version="1.0" encoding="utf-8" ?>
<svg baseProfile="full" height="100%" version="1.1" width="100%" xmlns="http://www.w3.org/2000/svg" xmlns:ev="http://www.w3.org/2001/xml-events" xmlns:xlink="http://www.w3.org/1999/xlink"><defs /><rect height="20" stroke="red" stroke-width="1" width="30.0" x="0" y="7.5" /><rect height="20" stroke="red" stroke-width="1" width="20" x="30.0" y="7.5" /><rect height="20" stroke="red" stroke-width="1" width="20" x="50.0" y="2.5" /><rect height="20" stroke="red" stroke-width="1" width="20" x="70.0" y="0" /><rect height="20" stroke="red" stroke-width="1" width="20" x="90.0" y="2.5" /><rect height="20" stroke="red" stroke-width="1" width="20" x="110.0" y="5.0" /><rect height="20" stroke="red" stroke-width="1" width="20" x="130.0" y="5.0" /><rect height="20" stroke="red" stroke-width="1" width="20" x="190.0" y="5.0" /><rect height="20" stroke="red" stroke-width="1" width="20" x="210.0" y="5.0" /><rect height="20" stroke="red" stroke-width="1" width="20" x="230.0" y="2.5" /><rect height="20" stroke="red" stroke-width="1" width="20" x="250.0" y="0" /><rect height="20" stroke="red" stroke-width="1" width="20" x="270.0" y="2.5" /><rect height="20" stroke="red" stroke-width="1" width="20" x="290.0" y="7.5" /><rect height="20" stroke="red" stroke-width="1" width="30.0" x="310.0" y="7.5" /><rect height="20" stroke="red" stroke-width="1" width="30.0" x="0" y="27.5" /><rect height="20" stroke="red" stroke-width="1" width="20" x="30.0" y="27.5" /><rect height="20" stroke="red" stroke-width="1" width="20" x="50.0" y="22.5" /><rect height="20" stroke="red" stroke-width="1" width="20" x="70.0" y="20" /><rect height="20" stroke="red" stroke-width="1" width="20" x="90.0" y="22.5" /><rect height="20" stroke="red" stroke-width="1" width="20" x="110.0" y="25.0" /><rect height="30.0" stroke="red" stroke-width="1" width="20" x="130.0" y="25.0" /><rect height="30.0" stroke="red" stroke-width="1" width="20" x="190.0" y="25.0" /><rect height="20" stroke="red" stroke-width="1" width="20" x="210.0" y="25.0" /><rect height="20" stroke="red" stroke-width="1" width="20" x="230.0" y="22.5" /><rect height="20" stroke="red" stroke-width="1" width="20" x="250.0" y="20" /><rect height="20" stroke="red" stroke-width="1" width="20" x="270.0" y="22.5" /><rect height="20" stroke="red" stroke-width="1" width="20" x="290.0" y="27.5" /><rect height="20" stroke="red" stroke-width="1" width="30.0" x="310.0" y="27.5" /><rect height="20" stroke="red" stroke-width="1" width="30.0" x="0" y="47.5" /><rect height="20" stroke="red" stroke-width="1" width="20" x="30.0" y="47.5" /><rect height="20" stroke="red" stroke-width="1" width="20" x="50.0" y="42.5" /><rect height="20" stroke="red" stroke-width="1" width="20" x="70.0" y="40" /><rect height="20" stroke="red" stroke-width="1" width="20" x="90.0" y="42.5" /><rect height="20" stroke="red" stroke-width="1" width="20" x="110.0" y="45.0" /><rect height="20" stroke="red" stroke-width="1" width="20" x="210.0" y="45.0" /><rect height="20" stroke="red" stroke-width="1" width="20" x="230.0" y="42.5" /><rect height="20" stroke="red" stroke-width="1" width="20" x="250.0" y="40" /><rect height="20" stroke="red" stroke-width="1" width="20" x="270.0" y="42.5" /><rect height="20" stroke="red" stroke-width="1" width="20" x="290.0" y="47.5" /><rect height="20" stroke="red" stroke-width="1" width="30.0" x="310.0" y="47.5" /><rect height="20" stroke="red" stroke-width="1" width="30.0" x="0" y="67.5" /><rect height="20" stroke="red" stroke-width="1" width="20" x="30.0" y="67.5" /><rect height="20" stroke="red" stroke-width="1" width="20" x="50.0" y="62.5" /><rect height="20" stroke="red" stroke-width="1" width="20" x="70.0" y="60" /><rect height="20" stroke="red" stroke-width="1" width="20" x="90.0" y="62.5" /><rect height="20" stroke="red" stroke-width="1" width="20" x="110.0" y="65.0" /><rect height="30.0" stroke="red" stroke-width="1" width="20" x="130.0" y="55.0" /><rect height="30.0" stroke="red" stroke-width="1" width="20" x="190.0" y="55.0" /><rect height="20" stroke="red" stroke-width="1" width="20" x="210.0" y="65.0" /><rect height="20" stroke="red" stroke-width="1" width="20" x="230.0" y="62.5" /><rect height="20" stroke="red" stroke-width="1" width="20" x="250.0" y="60" /><rect height="20" stroke="red" stroke-width="1" width="20" x="270.0" y="62.5" /><rect height="20" stroke="red" stroke-width="1" width="20" x="290.0" y="67.5" /><rect height="20" stroke="red" stroke-width="1" width="30.0" x="310.0" y="67.5" /><rect height="20" stroke="red" stroke-width="1" width="20" x="10.0" y="87.5" /><rect height="20" stroke="red" stroke-width="1" width="20" x="30.0" y="87.5" /><rect height="20" stroke="red" stroke-width="1" width="20" x="50.0" y="82.5" /><rect height="20" stroke="red" stroke-width="1" width="20" x="70.0" y="80" /><rect height="20" stroke="red" stroke-width="1" width="20" x="90.0" y="82.5" /><rect height="20" stroke="red" stroke-width="1" width="20" x="230.0" y="82.5" /><rect height="20" stroke="red" stroke-width="1" width="20" x="250.0" y="80" /><rect height="20" stroke="red" stroke-width="1" width="20" x="270.0" y="82.5" /><rect height="20" stroke="red" stroke-width="1" width="20" x="290.0" y="87.5" /><rect height="20" stroke="red" stroke-width="1" width="20" x="310.0" y="87.5" /><rect height="20" stroke="red" stroke-width="1" width="20" x="120" y="100" /><rect height="20" stroke="red" stroke-width="1" width="20" x="140" y="100" /><rect height="20" stroke="red" stroke-width="1" width="20" x="180" y="100" /><rect height="20" stroke="red" stroke-width="1" width="20" x="200" y="100" /><rect height="20" stroke="red" stroke-width="1" width="20" x="100" y="120" /><rect height="20" stroke="red" stroke-width="1" width="20" x="120" y="120" /><rect height="20" stroke="red" stroke-width="1" width="20" x="140" y="120" /><rect height="20" stroke="red" stroke-width="1" width="20" x="180" y="120" /><rect height="20" stroke="red" stroke-width="1" width="20" x="200" y="120" /><rect height="20" stroke="red" stroke-width="1" width="20" x="220" y="120" /><rect height="20" stroke="red" stroke-width="1" width="20" x="100" y="140" /><rect height="20" stroke="red" stroke-width="1" width="20" x="120" y="140" /><rect height="20" stroke="red" stroke-width="1" width="20" x="140" y="140" /><rect height="20" stroke="red" stroke-width="1" width="20" x="180" y="140" /><rect height="20" stroke="red" stroke-width="1" width="20" x="200" y="140" /><rect height="20" stroke="red" stroke-width="1" width="20" x="220" y="140" /></svg>