<?xml version="1.0" encoding="utf-8" ?>
<svg baseProfile="full" height="100%" version="1.1" width="100%" xmlns="http://www.w3.org/2000/svg" xmlns:ev="http://www.w3.org/2001/xml-events" xmlns:xlink="http://www.w3.org/1999/xlink"><defs /><rect height="20" stroke="red" stroke-width="1" width="20" x="0" y="0" /><rect height="20" stroke="red" stroke-width="1" width="20" x="20" y="0" /><rect height="20" stroke="red" stroke-width="1" width="20" x="40" y="0" /><rect height="20" stroke="red" stroke-width="1" width="20" x="60" y="0" /><rect height="20" stroke="red" stroke-width="1" width="20" x="80" y="0" /><rect height="20" stroke="red" stroke-width="1" width="20" x="100" y="0" /><rect height="20" stroke="red" stroke-width="1" width="20" x="120" y="0" /><rect height="20" stroke="red" stroke-width="1" width="20" x="140" y="0" /><rect height="20" stroke="red" stroke-width="1" width="20" x="160" y="0" /><rect height="20" stroke="red" stroke-width="1" width="20" x="180" y="0" /><rect height="20" stroke="red" stroke-width="1" width="20" x="200" y="0" /><rect height="20" stroke="red" stroke-width="1" width="20" x="220" y="0" /><rect height="20" stroke="red" stroke-width="1" width="20" x="240" y="0" /><rect height="20" stroke="red" stroke-width="1" width="40" x="260" y="0" /><rect height="20" stroke="red" stroke-width="1" width="20" x="305.0" y="0" /><rect height="20" stroke="red" stroke-width="1" width="20" x="325.0" y="0" /><rect height="20" stroke="red" stroke-width="1" width="30.0" x="0" y="20" /><rect height="20" stroke="red" stroke-width="1" width="20" x="30.0" y="20" /><rect height="20" stroke="red" stroke-width="1" width="20" x="50.0" y="20" /><rect height="20" stroke="red" stroke-width="1" width="20" x="70.0" y="20" /><rect height="20" stroke="red" stroke-width="1" width="20" x="90.0" y="20" /><rect height="20" stroke="red" stroke-width="1" width="20" x="110.0" y="20" /><rect height="20" stroke="red" stroke-width="1" width="20" x="130.0" y="20" /><rect height="20" stroke="red" stroke-width="1" width="20" x="150.0" y="20" /><rect height="20" stroke="red" stroke-width="1" width="20" x="170.0" y="20" /><rect height="20" stroke="red" stroke-width="1" width="20" x="190.0" y="20" /><rect height="20" stroke="red" stroke-width="1" width="20" x="210.0" y="20" /><rect height="20" stroke="red" stroke-width="1" width="20" x="230.0" y="20" /><rect height="20" stroke="red" stroke-width="1" width="20" x="250.0" y="20" /><rect height="20" stroke="red" stroke-width="1" width="30.0" x="270.0" y="20" /><rect height="20" stroke="red" stroke-width="1" width="20" x="305.0" y="20" /><rect height="20" stroke="red" stroke-width="1" width="20" x="325.0" y="20" /><rect height="20" stroke="red" stroke-width="1" width="35.0" x="0" y="40" /><rect height="20" stroke="red" stroke-width="1" width="20" x="35.0" y="40" /><rect height="20" stroke="red" stroke-width="1" width="20" x="55.0" y="40" /><rect height="20" stroke="red" stroke-width="1" width="20" x="75.0" y="40" /><rect height="20" stroke="red" stroke-width="1" width="20" x="95.0" y="40" /><rect height="20" stroke="red" stroke-width="1" width="20" x="115.0" y="40" /><rect height="20" stroke="red" stroke-width="1" width="20" x="135.0" y="40" /><rect height="20" stroke="red" stroke-width="1" width="20" x="155.0" y="40" /><rect height="20" stroke="red" stroke-width="1" width="20" x="175.0" y="40" /><rect height="20" stroke="red" stroke-width="1" width="20" x="195.0" y="40" /><rect height="20" stroke="red" stroke-width="1" width="20" x="215.0" y="40" /><rect height="20" stroke="red" stroke-width="1" width="20" x="235.0" y="40" /><rect height="20" stroke="red" stroke-width="1" width="45.0" x="255.0" y="40" /><rect height="20" stroke="red" stroke-width="1" width="45.0" x="0" y="60" /><rect height="20" stroke="red" stroke-width="1" width="20" x="45.0" y="60" /><rect height="20" stroke="red" stroke-width="1" width="20" x="65.0" y="60" /><rect height="20" stroke="red" stroke-width="1" width="20" x="85.0" y="60" /><rect height="20" stroke="red" stroke-width="1" width="20" x="105.0" y="60" /><rect height="20" stroke="red" stroke-width="1" width="20" x="125.0" y="60" /><rect height="20" stroke="red" stroke-width="1" width="20" x="145.0" y="60" /><rect height="20" stroke="red" stroke-width="1" width="20" x="165.0" y="60" /><rect height="20" stroke="red" stroke-width="1" width="20" x="185.0" y="60" /><rect height="20" stroke="red" stroke-width="1" width="20" x="205.0" y="60" /><rect height="20" stroke="red" stroke-width="1" width="20" x="225.0" y="60" /><rect height="20" stroke="red" stroke-width="1" width="55.0" x="245.0" y="60" /><rect height="20" stroke="red" stroke-width="1" width="20" x="305.0" y="60" /><rect height="20" stroke="red" stroke-width="1" width="25.0" x="0" y="80" /><rect height="20" stroke="red" stroke-width="1" width="25.0" x="25.0" y="80" /><rect height="20" stroke="red" stroke-width="1" width="25.0" x="50.0" y="80" /><rect height="20" stroke="red" stroke-width="1" width="125.0" x="75.0" y="80" /><rect height="20" stroke="red" stroke-width="1" width="25.0" x="200" y="80" /><rect height="20" stroke="red" stroke-width="1" width="25.0" x="225.0" y="80" /><rect height="20" stroke="red" stroke-width="1" width="25.0" x="250.0" y="80" /><rect height="20" stroke="red" stroke-width="1" width="20" x="285.0" y="80" /><rect height="20" stroke="red" stroke-width="1" width="20" x="305.0" y="80" /><rect height="20" stroke="red" stroke-width="1" width="20" x="325.0" y="80" /></svg>